<?xml version="1.0" encoding="UTF-8" standalone="no"?>
<!DOCTYPE svg PUBLIC "-//W3C//DTD SVG 1.1//EN"
 "http://www.w3.org/Graphics/SVG/1.1/DTD/svg11.dtd">
<!-- Generated by graphviz version 2.40.1 (20161225.0304)
 -->
<!-- Title: dependencies Pages: 1 -->
<svg width="4219pt" height="284pt"
 viewBox="0.00 0.00 4219.00 284.00" xmlns="http://www.w3.org/2000/svg" xmlns:xlink="http://www.w3.org/1999/xlink">
<g id="graph0" class="graph" transform="scale(1 1) rotate(0) translate(4 280)">
<title>dependencies</title>
<polygon fill="#ffffff" stroke="transparent" points="-4,4 -4,-280 4215,-280 4215,4 -4,4"/>
<text text-anchor="start" x="2084.5091" y="-42.4" font-family="sans-serif" font-weight="bold" font-size="14.00" fill="#000000">Legend</text>
<polygon fill="#ffffb3" stroke="transparent" points="1871.5,-10 1871.5,-30 1891.5,-30 1891.5,-10 1871.5,-10"/>
<text text-anchor="start" x="1895.129" y="-15.4" font-family="sans-serif" font-size="14.00" fill="#000000"> &#160;Declarations</text>
<polygon fill="#8dd3c7" stroke="transparent" points="1984.5,-10 1984.5,-30 2004.5,-30 2004.5,-10 1984.5,-10"/>
<text text-anchor="start" x="2008.2251" y="-15.4" font-family="sans-serif" font-size="14.00" fill="#000000"> &#160;Module</text>
<polygon fill="#80b1d3" stroke="transparent" points="2070.5,-10 2070.5,-30 2090.5,-30 2090.5,-10 2070.5,-10"/>
<text text-anchor="start" x="2094.2812" y="-15.4" font-family="sans-serif" font-size="14.00" fill="#000000"> &#160;Bootstrap</text>
<polygon fill="#fdb462" stroke="transparent" points="2167.5,-10 2167.5,-30 2187.5,-30 2187.5,-10 2167.5,-10"/>
<text text-anchor="start" x="2191.1732" y="-15.4" font-family="sans-serif" font-size="14.00" fill="#000000"> &#160;Providers</text>
<polygon fill="#fb8072" stroke="transparent" points="2263.5,-10 2263.5,-30 2283.5,-30 2283.5,-10 2263.5,-10"/>
<text text-anchor="start" x="2287.2258" y="-15.4" font-family="sans-serif" font-size="14.00" fill="#000000"> &#160;Exports</text>
<g id="clust1" class="cluster">
<title>cluster_AppModule</title>
<polygon fill="none" stroke="#000000" stroke-dasharray="1,5" points="8,-70 8,-268 3747,-268 3747,-70 8,-70"/>
</g>
<g id="clust2" class="cluster">
<title>cluster_AppModule_declarations</title>
<polygon fill="none" stroke="#000000" points="710,-78 710,-130 3739,-130 3739,-78 710,-78"/>
</g>
<g id="clust23" class="cluster">
<title>cluster_AppModule_imports</title>
<polygon fill="none" stroke="#000000" points="558,-78 558,-130 702,-130 702,-78 558,-78"/>
</g>
<g id="clust25" class="cluster">
<title>cluster_AppModule_bootstrap</title>
<polygon fill="none" stroke="#000000" points="1797,-208 1797,-260 1921,-260 1921,-208 1797,-208"/>
</g>
<g id="clust26" class="cluster">
<title>cluster_AppModule_providers</title>
<polygon fill="none" stroke="#000000" points="16,-78 16,-130 550,-130 550,-78 16,-78"/>
</g>
<g id="clust33" class="cluster">
<title>cluster_AuthModule</title>
<polygon fill="none" stroke="#000000" stroke-dasharray="1,5" points="3755,-70 3755,-195 4203,-195 4203,-70 3755,-70"/>
</g>
<g id="clust34" class="cluster">
<title>cluster_AuthModule_declarations</title>
<polygon fill="none" stroke="#000000" points="3919,-78 3919,-130 4195,-130 4195,-78 3919,-78"/>
</g>
<g id="clust37" class="cluster">
<title>cluster_AuthModule_imports</title>
<polygon fill="none" stroke="#000000" points="3763,-78 3763,-130 3911,-130 3911,-78 3763,-78"/>
</g>
<!-- AppComponent -->
<g id="node1" class="node">
<title>AppComponent</title>
<polygon fill="#ffffb3" stroke="#000000" points="3730.9399,-122 3625.0601,-122 3625.0601,-86 3730.9399,-86 3730.9399,-122"/>
<text text-anchor="middle" x="3678" y="-99.8" font-family="Times,serif" font-size="14.00" fill="#000000">AppComponent</text>
</g>
<!-- AppModule -->
<g id="node21" class="node">
<title>AppModule</title>
<polygon fill="#8dd3c7" stroke="#000000" points="1900.6571,-187 1897.6571,-191 1876.6571,-191 1873.6571,-187 1817.3429,-187 1817.3429,-151 1900.6571,-151 1900.6571,-187"/>
<text text-anchor="middle" x="1859" y="-164.8" font-family="Times,serif" font-size="14.00" fill="#000000">AppModule</text>
</g>
<!-- AppComponent&#45;&gt;AppModule -->
<g id="edge1" class="edge">
<title>AppComponent&#45;&gt;AppModule</title>
<path fill="none" stroke="#000000" d="M3678,-122.0908C3678,-145.1328 3678,-182 3678,-182 3678,-182 1910.8469,-182 1910.8469,-182"/>
<polygon fill="#000000" stroke="#000000" points="1910.8469,-178.5001 1900.8469,-182 1910.8468,-185.5001 1910.8469,-178.5001"/>
</g>
<!-- ArticleListsComponent -->
<g id="node2" class="node">
<title>ArticleListsComponent</title>
<polygon fill="#ffffb3" stroke="#000000" points="3607.9242,-122 3460.0758,-122 3460.0758,-86 3607.9242,-86 3607.9242,-122"/>
<text text-anchor="middle" x="3534" y="-99.8" font-family="Times,serif" font-size="14.00" fill="#000000">ArticleListsComponent</text>
</g>
<!-- ArticleListsComponent&#45;&gt;AppModule -->
<g id="edge2" class="edge">
<title>ArticleListsComponent&#45;&gt;AppModule</title>
<path fill="none" stroke="#000000" d="M3534,-122.1554C3534,-144.3519 3534,-179 3534,-179 3534,-179 1910.8226,-179 1910.8226,-179"/>
<polygon fill="#000000" stroke="#000000" points="1910.8227,-175.5001 1900.8226,-179 1910.8226,-182.5001 1910.8227,-175.5001"/>
</g>
<!-- BeautifyKeyStringPipe -->
<g id="node3" class="node">
<title>BeautifyKeyStringPipe</title>
<polygon fill="#ffffb3" stroke="#000000" points="3442.1414,-122 3295.8586,-122 3295.8586,-86 3442.1414,-86 3442.1414,-122"/>
<text text-anchor="middle" x="3369" y="-99.8" font-family="Times,serif" font-size="14.00" fill="#000000">BeautifyKeyStringPipe</text>
</g>
<!-- BeautifyKeyStringPipe&#45;&gt;AppModule -->
<g id="edge3" class="edge">
<title>BeautifyKeyStringPipe&#45;&gt;AppModule</title>
<path fill="none" stroke="#000000" d="M3369,-122.1686C3369,-143.498 3369,-176 3369,-176 3369,-176 1910.962,-176 1910.962,-176"/>
<polygon fill="#000000" stroke="#000000" points="1910.9621,-172.5001 1900.962,-176 1910.962,-179.5001 1910.9621,-172.5001"/>
</g>
<!-- CategoryComponent -->
<g id="node4" class="node">
<title>CategoryComponent</title>
<polygon fill="#ffffb3" stroke="#000000" points="3277.1499,-122 3144.8501,-122 3144.8501,-86 3277.1499,-86 3277.1499,-122"/>
<text text-anchor="middle" x="3211" y="-99.8" font-family="Times,serif" font-size="14.00" fill="#000000">CategoryComponent</text>
</g>
<!-- CategoryComponent&#45;&gt;AppModule -->
<g id="edge4" class="edge">
<title>CategoryComponent&#45;&gt;AppModule</title>
<path fill="none" stroke="#000000" d="M3211,-122.0267C3211,-142.7672 3211,-174 3211,-174 3211,-174 1910.9452,-174 1910.9452,-174"/>
<polygon fill="#000000" stroke="#000000" points="1910.9453,-170.5001 1900.9452,-174 1910.9452,-177.5001 1910.9453,-170.5001"/>
</g>
<!-- ContactusComponent -->
<g id="node5" class="node">
<title>ContactusComponent</title>
<polygon fill="#ffffb3" stroke="#000000" points="3126.8244,-122 2989.1756,-122 2989.1756,-86 3126.8244,-86 3126.8244,-122"/>
<text text-anchor="middle" x="3058" y="-99.8" font-family="Times,serif" font-size="14.00" fill="#000000">ContactusComponent</text>
</g>
<!-- ContactusComponent&#45;&gt;AppModule -->
<g id="edge5" class="edge">
<title>ContactusComponent&#45;&gt;AppModule</title>
<path fill="none" stroke="#000000" d="M3058,-122.308C3058,-142.1455 3058,-171 3058,-171 3058,-171 1910.97,-171 1910.97,-171"/>
<polygon fill="#000000" stroke="#000000" points="1910.97,-167.5001 1900.97,-171 1910.97,-174.5001 1910.97,-167.5001"/>
</g>
<!-- FooterComponent -->
<g id="node6" class="node">
<title>FooterComponent</title>
<polygon fill="#ffffb3" stroke="#000000" points="2970.8809,-122 2853.1191,-122 2853.1191,-86 2970.8809,-86 2970.8809,-122"/>
<text text-anchor="middle" x="2912" y="-99.8" font-family="Times,serif" font-size="14.00" fill="#000000">FooterComponent</text>
</g>
<!-- FooterComponent&#45;&gt;AppModule -->
<g id="edge6" class="edge">
<title>FooterComponent&#45;&gt;AppModule</title>
<path fill="none" stroke="#000000" d="M2912,-122.1686C2912,-141.0898 2912,-168 2912,-168 2912,-168 1910.9287,-168 1910.9287,-168"/>
<polygon fill="#000000" stroke="#000000" points="1910.9287,-164.5001 1900.9287,-168 1910.9286,-171.5001 1910.9287,-164.5001"/>
</g>
<!-- HomeMainArticlesComponent -->
<g id="node7" class="node">
<title>HomeMainArticlesComponent</title>
<polygon fill="#ffffb3" stroke="#000000" points="2834.9072,-122 2645.0928,-122 2645.0928,-86 2834.9072,-86 2834.9072,-122"/>
<text text-anchor="middle" x="2740" y="-99.8" font-family="Times,serif" font-size="14.00" fill="#000000">HomeMainArticlesComponent</text>
</g>
<!-- HomeMainArticlesComponent&#45;&gt;AppModule -->
<g id="edge7" class="edge">
<title>HomeMainArticlesComponent&#45;&gt;AppModule</title>
<path fill="none" stroke="#000000" d="M2740,-122.302C2740,-140.2699 2740,-165 2740,-165 2740,-165 1910.8998,-165 1910.8998,-165"/>
<polygon fill="#000000" stroke="#000000" points="1910.8998,-161.5001 1900.8998,-165 1910.8997,-168.5001 1910.8998,-161.5001"/>
</g>
<!-- HomepageComponent -->
<g id="node8" class="node">
<title>HomepageComponent</title>
<polygon fill="#ffffb3" stroke="#000000" points="2626.9734,-122 2485.0266,-122 2485.0266,-86 2626.9734,-86 2626.9734,-122"/>
<text text-anchor="middle" x="2556" y="-99.8" font-family="Times,serif" font-size="14.00" fill="#000000">HomepageComponent</text>
</g>
<!-- HomepageComponent&#45;&gt;AppModule -->
<g id="edge8" class="edge">
<title>HomepageComponent&#45;&gt;AppModule</title>
<path fill="none" stroke="#000000" d="M2556,-122.0225C2556,-139.3734 2556,-163 2556,-163 2556,-163 1910.7717,-163 1910.7717,-163"/>
<polygon fill="#000000" stroke="#000000" points="1910.7717,-159.5001 1900.7717,-163 1910.7716,-166.5001 1910.7717,-159.5001"/>
</g>
<!-- ImagePreloadDirective -->
<g id="node9" class="node">
<title>ImagePreloadDirective</title>
<polygon fill="#ffffb3" stroke="#000000" points="2466.8263,-122 2321.1737,-122 2321.1737,-86 2466.8263,-86 2466.8263,-122"/>
<text text-anchor="middle" x="2394" y="-99.8" font-family="Times,serif" font-size="14.00" fill="#000000">ImagePreloadDirective</text>
</g>
<!-- ImagePreloadDirective&#45;&gt;AppModule -->
<g id="edge9" class="edge">
<title>ImagePreloadDirective&#45;&gt;AppModule</title>
<path fill="none" stroke="#000000" d="M2394,-122.027C2394,-138.3976 2394,-160 2394,-160 2394,-160 1910.9806,-160 1910.9806,-160"/>
<polygon fill="#000000" stroke="#000000" points="1910.9806,-156.5001 1900.9806,-160 1910.9805,-163.5001 1910.9806,-156.5001"/>
</g>
<!-- LatestNewsComponent -->
<g id="node10" class="node">
<title>LatestNewsComponent</title>
<polygon fill="#ffffb3" stroke="#000000" points="2302.913,-122 2155.087,-122 2155.087,-86 2302.913,-86 2302.913,-122"/>
<text text-anchor="middle" x="2229" y="-99.8" font-family="Times,serif" font-size="14.00" fill="#000000">LatestNewsComponent</text>
</g>
<!-- LatestNewsComponent&#45;&gt;AppModule -->
<g id="edge10" class="edge">
<title>LatestNewsComponent&#45;&gt;AppModule</title>
<path fill="none" stroke="#000000" d="M2229,-122.2396C2229,-137.5706 2229,-157 2229,-157 2229,-157 1910.7245,-157 1910.7245,-157"/>
<polygon fill="#000000" stroke="#000000" points="1910.7245,-153.5001 1900.7245,-157 1910.7244,-160.5001 1910.7245,-153.5001"/>
</g>
<!-- NavbarComponent -->
<g id="node11" class="node">
<title>NavbarComponent</title>
<polygon fill="#ffffb3" stroke="#000000" points="2137.0297,-122 2014.9703,-122 2014.9703,-86 2137.0297,-86 2137.0297,-122"/>
<text text-anchor="middle" x="2076" y="-99.8" font-family="Times,serif" font-size="14.00" fill="#000000">NavbarComponent</text>
</g>
<!-- NavbarComponent&#45;&gt;AppModule -->
<g id="edge11" class="edge">
<title>NavbarComponent&#45;&gt;AppModule</title>
<path fill="none" stroke="#000000" d="M2076,-122.0511C2076,-136.373 2076,-154 2076,-154 2076,-154 1910.8398,-154 1910.8398,-154"/>
<polygon fill="#000000" stroke="#000000" points="1910.8398,-150.5001 1900.8398,-154 1910.8397,-157.5001 1910.8398,-150.5001"/>
</g>
<!-- ProfileComponent -->
<g id="node12" class="node">
<title>ProfileComponent</title>
<polygon fill="#ffffb3" stroke="#000000" points="1996.9328,-122 1877.0672,-122 1877.0672,-86 1996.9328,-86 1996.9328,-122"/>
<text text-anchor="middle" x="1937" y="-99.8" font-family="Times,serif" font-size="14.00" fill="#000000">ProfileComponent</text>
</g>
<!-- ProfileComponent&#45;&gt;AppModule -->
<g id="edge12" class="edge">
<title>ProfileComponent&#45;&gt;AppModule</title>
<path fill="none" stroke="#000000" d="M1889.0561,-122.1061C1889.0561,-122.1061 1889.0561,-140.991 1889.0561,-140.991"/>
<polygon fill="#000000" stroke="#000000" points="1885.5562,-140.9909 1889.0561,-150.991 1892.5562,-140.991 1885.5562,-140.9909"/>
</g>
<!-- RightSidebarComponent -->
<g id="node13" class="node">
<title>RightSidebarComponent</title>
<polygon fill="#ffffb3" stroke="#000000" points="1859.7133,-122 1704.2867,-122 1704.2867,-86 1859.7133,-86 1859.7133,-122"/>
<text text-anchor="middle" x="1782" y="-99.8" font-family="Times,serif" font-size="14.00" fill="#000000">RightSidebarComponent</text>
</g>
<!-- RightSidebarComponent&#45;&gt;AppModule -->
<g id="edge13" class="edge">
<title>RightSidebarComponent&#45;&gt;AppModule</title>
<path fill="none" stroke="#000000" d="M1838.3892,-122.1061C1838.3892,-122.1061 1838.3892,-140.991 1838.3892,-140.991"/>
<polygon fill="#000000" stroke="#000000" points="1834.8893,-140.9909 1838.3892,-150.991 1841.8893,-140.991 1834.8893,-140.9909"/>
</g>
<!-- ScrollTopComponent -->
<g id="node14" class="node">
<title>ScrollTopComponent</title>
<polygon fill="#ffffb3" stroke="#000000" points="1686.8244,-122 1549.1756,-122 1549.1756,-86 1686.8244,-86 1686.8244,-122"/>
<text text-anchor="middle" x="1618" y="-99.8" font-family="Times,serif" font-size="14.00" fill="#000000">ScrollTopComponent</text>
</g>
<!-- ScrollTopComponent&#45;&gt;AppModule -->
<g id="edge14" class="edge">
<title>ScrollTopComponent&#45;&gt;AppModule</title>
<path fill="none" stroke="#000000" d="M1618,-122.0511C1618,-136.373 1618,-154 1618,-154 1618,-154 1807.2961,-154 1807.2961,-154"/>
<polygon fill="#000000" stroke="#000000" points="1807.2962,-157.5001 1817.2961,-154 1807.2961,-150.5001 1807.2962,-157.5001"/>
</g>
<!-- SearchComponent -->
<g id="node15" class="node">
<title>SearchComponent</title>
<polygon fill="#ffffb3" stroke="#000000" points="1531.9201,-122 1412.0799,-122 1412.0799,-86 1531.9201,-86 1531.9201,-122"/>
<text text-anchor="middle" x="1472" y="-99.8" font-family="Times,serif" font-size="14.00" fill="#000000">SearchComponent</text>
</g>
<!-- SearchComponent&#45;&gt;AppModule -->
<g id="edge15" class="edge">
<title>SearchComponent&#45;&gt;AppModule</title>
<path fill="none" stroke="#000000" d="M1472,-122.2396C1472,-137.5706 1472,-157 1472,-157 1472,-157 1807.2165,-157 1807.2165,-157"/>
<polygon fill="#000000" stroke="#000000" points="1807.2166,-160.5001 1817.2165,-157 1807.2165,-153.5001 1807.2166,-160.5001"/>
</g>
<!-- StringFilterPipe -->
<g id="node16" class="node">
<title>StringFilterPipe</title>
<polygon fill="#ffffb3" stroke="#000000" points="1394.9427,-122 1289.0573,-122 1289.0573,-86 1394.9427,-86 1394.9427,-122"/>
<text text-anchor="middle" x="1342" y="-99.8" font-family="Times,serif" font-size="14.00" fill="#000000">StringFilterPipe</text>
</g>
<!-- StringFilterPipe&#45;&gt;AppModule -->
<g id="edge16" class="edge">
<title>StringFilterPipe&#45;&gt;AppModule</title>
<path fill="none" stroke="#000000" d="M1342,-122.027C1342,-138.3976 1342,-160 1342,-160 1342,-160 1807.1297,-160 1807.1297,-160"/>
<polygon fill="#000000" stroke="#000000" points="1807.1297,-163.5001 1817.1297,-160 1807.1296,-156.5001 1807.1297,-163.5001"/>
</g>
<!-- TopNewsComponent -->
<g id="node17" class="node">
<title>TopNewsComponent</title>
<polygon fill="#ffffb3" stroke="#000000" points="1270.7576,-122 1135.2424,-122 1135.2424,-86 1270.7576,-86 1270.7576,-122"/>
<text text-anchor="middle" x="1203" y="-99.8" font-family="Times,serif" font-size="14.00" fill="#000000">TopNewsComponent</text>
</g>
<!-- TopNewsComponent&#45;&gt;AppModule -->
<g id="edge17" class="edge">
<title>TopNewsComponent&#45;&gt;AppModule</title>
<path fill="none" stroke="#000000" d="M1203,-122.0225C1203,-139.3734 1203,-163 1203,-163 1203,-163 1807.2168,-163 1807.2168,-163"/>
<polygon fill="#000000" stroke="#000000" points="1807.2168,-166.5001 1817.2168,-163 1807.2168,-159.5001 1807.2168,-166.5001"/>
</g>
<!-- TruncateTextPipe -->
<g id="node18" class="node">
<title>TruncateTextPipe</title>
<polygon fill="#ffffb3" stroke="#000000" points="1117.2936,-122 1000.7064,-122 1000.7064,-86 1117.2936,-86 1117.2936,-122"/>
<text text-anchor="middle" x="1059" y="-99.8" font-family="Times,serif" font-size="14.00" fill="#000000">TruncateTextPipe</text>
</g>
<!-- TruncateTextPipe&#45;&gt;AppModule -->
<g id="edge18" class="edge">
<title>TruncateTextPipe&#45;&gt;AppModule</title>
<path fill="none" stroke="#000000" d="M1059,-122.2667C1059,-140.5552 1059,-166 1059,-166 1059,-166 1807.1149,-166 1807.1149,-166"/>
<polygon fill="#000000" stroke="#000000" points="1807.1149,-169.5001 1817.1149,-166 1807.1149,-162.5001 1807.1149,-169.5001"/>
</g>
<!-- WeatherComponent -->
<g id="node19" class="node">
<title>WeatherComponent</title>
<polygon fill="#ffffb3" stroke="#000000" points="982.2423,-122 853.7577,-122 853.7577,-86 982.2423,-86 982.2423,-122"/>
<text text-anchor="middle" x="918" y="-99.8" font-family="Times,serif" font-size="14.00" fill="#000000">WeatherComponent</text>
</g>
<!-- WeatherComponent&#45;&gt;AppModule -->
<g id="edge19" class="edge">
<title>WeatherComponent&#45;&gt;AppModule</title>
<path fill="none" stroke="#000000" d="M918,-122.1061C918,-141.3391 918,-169 918,-169 918,-169 1807.0462,-169 1807.0462,-169"/>
<polygon fill="#000000" stroke="#000000" points="1807.0462,-172.5001 1817.0462,-169 1807.0461,-165.5001 1807.0462,-172.5001"/>
</g>
<!-- WorldComponent -->
<g id="node20" class="node">
<title>WorldComponent</title>
<polygon fill="#ffffb3" stroke="#000000" points="835.5982,-122 718.4018,-122 718.4018,-86 835.5982,-86 835.5982,-122"/>
<text text-anchor="middle" x="777" y="-99.8" font-family="Times,serif" font-size="14.00" fill="#000000">WorldComponent</text>
</g>
<!-- WorldComponent&#45;&gt;AppModule -->
<g id="edge20" class="edge">
<title>WorldComponent&#45;&gt;AppModule</title>
<path fill="none" stroke="#000000" d="M777,-122.2228C777,-142.3652 777,-172 777,-172 777,-172 1807.2473,-172 1807.2473,-172"/>
<polygon fill="#000000" stroke="#000000" points="1807.2473,-175.5001 1817.2473,-172 1807.2473,-168.5001 1807.2473,-175.5001"/>
</g>
<!-- AppComponent  -->
<g id="node23" class="node">
<title>AppComponent </title>
<polygon fill="#80b1d3" stroke="#000000" points="1913.439,-252 1804.561,-252 1804.561,-216 1913.439,-216 1913.439,-252"/>
<text text-anchor="middle" x="1859" y="-229.8" font-family="Times,serif" font-size="14.00" fill="#000000">AppComponent </text>
</g>
<!-- AppModule&#45;&gt;AppComponent  -->
<g id="edge22" class="edge">
<title>AppModule&#45;&gt;AppComponent </title>
<path fill="none" stroke="#000000" stroke-dasharray="1,5" d="M1859,-187.1061C1859,-187.1061 1859,-205.991 1859,-205.991"/>
<polygon fill="#000000" stroke="#000000" points="1855.5001,-205.9909 1859,-215.991 1862.5001,-205.991 1855.5001,-205.9909"/>
</g>
<!-- AppRoutingModule -->
<g id="node22" class="node">
<title>AppRoutingModule</title>
<polygon fill="#8dd3c7" stroke="#000000" points="694.2744,-122 691.2744,-126 670.2744,-126 667.2744,-122 565.7256,-122 565.7256,-86 694.2744,-86 694.2744,-122"/>
<text text-anchor="middle" x="630" y="-99.8" font-family="Times,serif" font-size="14.00" fill="#000000">AppRoutingModule</text>
</g>
<!-- AppRoutingModule&#45;&gt;AppModule -->
<g id="edge21" class="edge">
<title>AppRoutingModule&#45;&gt;AppModule</title>
<path fill="none" stroke="#000000" d="M630,-122.2843C630,-143.3211 630,-175 630,-175 630,-175 1807.0506,-175 1807.0506,-175"/>
<polygon fill="#000000" stroke="#000000" points="1807.0506,-178.5001 1817.0506,-175 1807.0505,-171.5001 1807.0506,-178.5001"/>
</g>
<!-- ArticleService -->
<g id="node24" class="node">
<title>ArticleService</title>
<ellipse fill="#fdb462" stroke="#000000" cx="475" cy="-104" rx="66.6055" ry="18"/>
<text text-anchor="middle" x="475" y="-99.8" font-family="Times,serif" font-size="14.00" fill="#000000">ArticleService</text>
</g>
<!-- ArticleService&#45;&gt;AppModule -->
<g id="edge23" class="edge">
<title>ArticleService&#45;&gt;AppModule</title>
<path fill="none" stroke="#000000" d="M475,-122.2921C475,-144.2057 475,-178 475,-178 475,-178 1807.2026,-178 1807.2026,-178"/>
<polygon fill="#000000" stroke="#000000" points="1807.2026,-181.5001 1817.2026,-178 1807.2025,-174.5001 1807.2026,-181.5001"/>
</g>
<!-- ThemeService -->
<g id="node25" class="node">
<title>ThemeService</title>
<ellipse fill="#fdb462" stroke="#000000" cx="323" cy="-104" rx="66.6113" ry="18"/>
<text text-anchor="middle" x="323" y="-99.8" font-family="Times,serif" font-size="14.00" fill="#000000">ThemeService</text>
</g>
<!-- ThemeService&#45;&gt;AppModule -->
<g id="edge24" class="edge">
<title>ThemeService&#45;&gt;AppModule</title>
<path fill="none" stroke="#000000" d="M323,-122.2479C323,-145.0179 323,-181 323,-181 323,-181 1807.1191,-181 1807.1191,-181"/>
<polygon fill="#000000" stroke="#000000" points="1807.1191,-184.5001 1817.1191,-181 1807.1191,-177.5001 1807.1191,-184.5001"/>
</g>
<!-- TokenInterceptorService -->
<g id="node26" class="node">
<title>TokenInterceptorService</title>
<ellipse fill="#fdb462" stroke="#000000" cx="131" cy="-104" rx="107.0415" ry="18"/>
<text text-anchor="middle" x="131" y="-99.8" font-family="Times,serif" font-size="14.00" fill="#000000">TokenInterceptorService</text>
</g>
<!-- TokenInterceptorService&#45;&gt;AppModule -->
<g id="edge25" class="edge">
<title>TokenInterceptorService&#45;&gt;AppModule</title>
<path fill="none" stroke="#000000" d="M131,-122.1532C131,-145.7566 131,-184 131,-184 131,-184 1807.1414,-184 1807.1414,-184"/>
<polygon fill="#000000" stroke="#000000" points="1807.1414,-187.5001 1817.1414,-184 1807.1413,-180.5001 1807.1414,-187.5001"/>
</g>
<!-- LoginComponent -->
<g id="node27" class="node">
<title>LoginComponent</title>
<polygon fill="#ffffb3" stroke="#000000" points="4187.2758,-122 4072.7242,-122 4072.7242,-86 4187.2758,-86 4187.2758,-122"/>
<text text-anchor="middle" x="4130" y="-99.8" font-family="Times,serif" font-size="14.00" fill="#000000">LoginComponent</text>
</g>
<!-- AuthModule -->
<g id="node29" class="node">
<title>AuthModule</title>
<polygon fill="#8dd3c7" stroke="#000000" points="4034.5482,-187 4031.5482,-191 4010.5482,-191 4007.5482,-187 3947.4518,-187 3947.4518,-151 4034.5482,-151 4034.5482,-187"/>
<text text-anchor="middle" x="3991" y="-164.8" font-family="Times,serif" font-size="14.00" fill="#000000">AuthModule</text>
</g>
<!-- LoginComponent&#45;&gt;AuthModule -->
<g id="edge26" class="edge">
<title>LoginComponent&#45;&gt;AuthModule</title>
<path fill="none" stroke="#000000" d="M4130,-122.1061C4130,-141.3391 4130,-169 4130,-169 4130,-169 4044.5991,-169 4044.5991,-169"/>
<polygon fill="#000000" stroke="#000000" points="4044.5991,-165.5001 4034.5991,-169 4044.5991,-172.5001 4044.5991,-165.5001"/>
</g>
<!-- RegisterComponent -->
<g id="node28" class="node">
<title>RegisterComponent</title>
<polygon fill="#ffffb3" stroke="#000000" points="4054.9846,-122 3927.0154,-122 3927.0154,-86 4054.9846,-86 4054.9846,-122"/>
<text text-anchor="middle" x="3991" y="-99.8" font-family="Times,serif" font-size="14.00" fill="#000000">RegisterComponent</text>
</g>
<!-- RegisterComponent&#45;&gt;AuthModule -->
<g id="edge27" class="edge">
<title>RegisterComponent&#45;&gt;AuthModule</title>
<path fill="none" stroke="#000000" d="M3991,-122.1061C3991,-122.1061 3991,-140.991 3991,-140.991"/>
<polygon fill="#000000" stroke="#000000" points="3987.5001,-140.9909 3991,-150.991 3994.5001,-140.991 3987.5001,-140.9909"/>
</g>
<!-- AuthRoutingModule -->
<g id="node30" class="node">
<title>AuthRoutingModule</title>
<polygon fill="#8dd3c7" stroke="#000000" points="3903.1652,-122 3900.1652,-126 3879.1652,-126 3876.1652,-122 3770.8348,-122 3770.8348,-86 3903.1652,-86 3903.1652,-122"/>
<text text-anchor="middle" x="3837" y="-99.8" font-family="Times,serif" font-size="14.00" fill="#000000">AuthRoutingModule</text>
</g>
<!-- AuthRoutingModule&#45;&gt;AuthModule -->
<g id="edge28" class="edge">
<title>AuthRoutingModule&#45;&gt;AuthModule</title>
<path fill="none" stroke="#000000" d="M3837,-122.3802C3837,-146.2785 3837,-185 3837,-185 3837,-185 3937.2817,-185 3937.2817,-185"/>
<polygon fill="#000000" stroke="#000000" points="3937.2817,-188.5001 3947.2817,-185 3937.2817,-181.5001 3937.2817,-188.5001"/>
</g>
</g>
</svg>
